<?xml version="1.0" encoding="utf-8"?>
<!-- Generator: Adobe Illustrator 23.0.2, SVG Export Plug-In . SVG Version: 6.00 Build 0)  -->
<svg version="1.1" id="circulo_x5F_mayores" xmlns="http://www.w3.org/2000/svg" xmlns:xlink="http://www.w3.org/1999/xlink"
	 x="0px" y="0px" viewBox="0 0 24 24" style="enable-background:new 0 0 24 24;" xml:space="preserve">
<style type="text/css">
	.st0{opacity:0.55;}
</style>
<g class="st0">
	<path d="M3.6,15.6V9.4h16.5v1.9c0,0.2,0.2,0.4,0.4,0.4h1.7V3.2c0-1.1-0.9-2.1-2.1-2.1H3.6C2.5,1.1,1.5,2,1.5,3.2v12.4
		c0,1.1,0.9,2.1,2.1,2.1h7.7V16c0-0.2-0.2-0.4-0.4-0.4H3.6z M3.6,3.2h16.5v2.1H3.6V3.2z"/>
	<path d="M16.3,14.5c0,1.4-1,2.7-2.5,2.7s-2.5-1.2-2.5-2.7c0-1.4,1-2.7,2.5-2.7C15.3,11.8,16.3,13.1,16.3,14.5z M19.9,12.2
		c0.1-0.1,0.1-0.1,0.2-0.2c0.1-0.1,0.2-0.1,0.4-0.1h1.6l-8,10.6c-0.1,0.1-0.1,0.1-0.2,0.2c-0.1,0.1-0.2,0.1-0.3,0.1h-1.8L19.9,12.2z
		 M14.9,14.5c0-0.5-0.1-1.2-0.7-1.5c-0.4-0.1-0.8-0.1-1.1,0.2s-0.4,0.8-0.4,1.3c0,0.7,0.2,1.5,1.1,1.5C14.6,16,14.9,15.2,14.9,14.5z
		 M22.5,20.2c0,1.4-1,2.7-2.5,2.7s-2.5-1.2-2.5-2.7c0-1.4,1-2.7,2.5-2.7C21.5,17.4,22.5,18.7,22.5,20.2z M21,20.2
		c0-0.5-0.1-1.2-0.7-1.5c-0.4-0.1-0.8-0.1-1.1,0.2c-0.3,0.3-0.4,0.8-0.4,1.3c0,0.7,0.2,1.5,1.1,1.5S21,20.9,21,20.2z"/>
</g>
</svg>
