<?xml version="1.0" encoding="utf-8"?>
<!-- Generator: Adobe Illustrator 23.0.2, SVG Export Plug-In . SVG Version: 6.00 Build 0)  -->
<svg version="1.1" id="Capa_1" xmlns="http://www.w3.org/2000/svg" xmlns:xlink="http://www.w3.org/1999/xlink" x="0px" y="0px"
	 viewBox="0 0 24 24" style="enable-background:new 0 0 24 24;" xml:space="preserve">
<style type="text/css">
	.st0{opacity:0.55;fill:none;}
	.st1{opacity:0.55;}
</style>
<path class="st0" d="M0,0h24v24H0V0z"/>
<path class="st1" d="M5,8h2v8H5V8z M12,8H9C8.4,8,8,8.4,8,9v6c0,0.6,0.4,1,1,1h3c0.6,0,1-0.4,1-1V9C13,8.4,12.6,8,12,8z M11,14h-1
	v-4h1V14z M18,8h-3c-0.6,0-1,0.4-1,1v6c0,0.6,0.4,1,1,1h3c0.5,0,1-0.4,1-1V9C19,8.4,18.5,8,18,8z M17,14h-1v-4h1V14z"/>
<path class="st0" d="M4,6h16v12H4V6z"/>
<path class="st1" d="M2,4v16h20V4H2z M4,18V6h16v12H4z"/>
</svg>
