<?xml version="1.0" encoding="utf-8"?>
<!-- Generator: Adobe Illustrator 23.0.2, SVG Export Plug-In . SVG Version: 6.00 Build 0)  -->
<svg version="1.1" id="Capa_1" xmlns="http://www.w3.org/2000/svg" xmlns:xlink="http://www.w3.org/1999/xlink" x="0px" y="0px"
	 viewBox="0 0 24 24" style="enable-background:new 0 0 24 24;" xml:space="preserve">
<style type="text/css">
	.st0{opacity:0.55;enable-background:new    ;}
	.st1{fill:none;}
</style>
<path class="st0" d="M15,18.5c-2.5,0-4.7-1.4-5.8-3.5H15v-2H8.6c-0.1-0.3-0.1-0.7-0.1-1s0-0.7,0.1-1H15V9H9.2
	c1.1-2.1,3.3-3.5,5.8-3.5c1.6,0,3.1,0.6,4.2,1.6L21,5.3C19.4,3.9,17.3,3,15,3c-3.9,0-7.2,2.5-8.5,6H3v2h3.1C6,11.3,6,11.7,6,12
	s0,0.7,0.1,1H3v2h3.5c1.2,3.5,4.6,6,8.5,6c2.3,0,4.4-0.9,6-2.3l-1.8-1.8C18.1,17.9,16.6,18.5,15,18.5z"/>
<path class="st1" d="M0,0h24v24H0V0z"/>
</svg>
