<svg xmlns="http://www.w3.org/2000/svg" width="71.599" height="61.908" viewBox="0 0 71.599 61.908"><defs><style>.a{fill:#626262;}</style></defs><g transform="translate(-650.188 -85.179)"><g transform="translate(650.188 140.037)"><path class="a" d="M680.359,422.565l.455-.238.006-.027.095-.174,0-.014-.057-.143-.121-.006-.169.087-.017,0-.1.01-.3-.037-.179.058-.058.041-.089.039,0,0-.006,0-.1.031-.095.094-.033.093h0l-.112.106,0,0-.051.059-.017.021-.2.159-.018,0-.185.084-.053.027-.017.005-.057.011-.037,0-.092,0-.055,0-.25.056-.282.053-.037,0-.079,0-.005,0-.1-.015-.163-.026-.124.06-.079.032-.035.007-.055.036,0,.015,0,.051.077.076.013.006.051.051.005.016.019.017h0l.034.059,0,.011.086.173.008.126.018.055.09.129.018.011h0l.086.138,0,.018.018.037h0l.179.22.041.056h0l.052.089.069.1.06.2.021.035.038.017.22-.051.125-.061h0l.168-.049.18-.064.149-.178.078-.108.089-.125,0,0,.1-.094h0l.022-.073.051-.19h0l0-.012.072-.186,0-.016.05-.1.035-.071h0l.058-.091h0l0-.141-.007-.04.118-.2h0l.235-.221.04-.04.089-.089Z" transform="translate(-672.782 -418.861)"/><path class="a" d="M745.7,418.215l0-.046,0-.089h0l-.051-.5-.038-.074-.005-.005-.07-.067-.036-.053h0l-.308.017-.22.108-.089.152-.044.214-.021.058-.034.2-.036.043-.222.382h0l-.038.077-.059.1-.165.346-.03.075-.019.016-.012.055-.069.106-.084.187,0,.016-.014.244-.007.03-.051.073h0l-.108.132.243.048.133-.017.066.007v-.1l.141-.067.4-.159.687-.689.027-.036.009.005-.009-.005v-.255l.073-.239.058-.2.013-.083Z" transform="translate(-727.746 -415.069)"/><path class="a" d="M706.529,434.237l.021-.092,0-.236-.028-.114-.127-.318-.041-.142.054-.188-.082-.088-.075.036v.035l.014.056,0,.036h-.252l-.119-.035-.249.015-.294-.076-.091-.014h-.055l-.094.02,0,0-.035.3-.163.249-.082.069-.1.067-.093.055-.015.154-.018.234.015.09.059.126.035.076,0,.011h0l.049.1.077.056h0l.069.054.041.072.111.073.183.148.018,0,.166.014.073.022.281-.065.286-.107.13-.032h0l.073-.039.257-.308.021-.057-.046-.071.027-.183Z" transform="translate(-695.236 -428.048)"/><path class="a" d="M753.728,405.585h0l.056-.07.2-.056.017,0h.11l.054-.021.166-.112.053-.036.168-.019.127-.1h0l.056-.033.05-.036.017-.018.077-.127h0l0-.017.035-.222h0l.011-.02h0l.011-.107-.021-.074v-.076h0l.013-.036.081-.066.013-.007.038-.111h0l.007-.053h0l-.025-.144-.109-.091h0l-.171.079-.046.105h0l0,.014-.034.092h0l-.059.165h0l-.173.054-.135-.037-.041.019-.069.037h-.018l-.2.089-.023.037h0l-.2.075-.083,0-.095.034-.011.011.021.007-.159.148-.015.02-.075.109-.04.107v.19l0,.007,0,.006,0,.073-.127.162-.038.04.093.164.165,0,.095.014.052.022.054-.006.128-.2Z" transform="translate(-735.424 -403.942)"/><path class="a" d="M650.594,415.826l.069.135.1.225.039.149.117.1.056.008.013,0,.1-.109.073-.149.025-.07.14-.262,0-.015v-.11l-.023-.091-.02-.053h0l.022-.2.051-.076h0l.051-.056h0l.027-.089-.1-.109-.034-.092-.092-.2-.037-.034-.118-.037h0L651,414.7l-.316-.018-.035,0-.05.005h0l-.021.019h0l-.038.016h-.009l-.039.01-.029.043h0l.057.075-.215.169-.063,0,0-.015-.01,0-.043.055.018.083,0,0,.107.091.144.313.02.042.114.238Z" transform="translate(-650.188 -412.832)"/><path class="a" d="M668.108,432.835l-.264.143-.239.238-.007.133.012.078.241.216.147-.014.037,0,.181-.025h0l.03-.015.136-.109.072-.08.007-.01.069-.093,0-.018v-.128l0-.018-.115-.127-.049-.022h0l-.021-.011-.055-.035-.091-.062-.088-.038Z" transform="translate(-664.601 -427.863)"/></g><path class="a" d="M1005.937,268.246c-.021-.018-.066-.033-.043-.07s.058-.023.09-.007a.184.184,0,0,0,0-.05c.013-.052.063-.076.093-.116a2.4,2.4,0,0,1,.174-.2.192.192,0,0,1,.069-.05c.034-.008.062-.032.1-.035a.117.117,0,0,0,.123-.045.215.215,0,0,1,.126-.059c-.016-.015-.037-.023-.039-.046.007-.041.04-.058.072-.075.068-.008.1-.065.142-.106.009,0,0,0,.006,0a.666.666,0,0,0,.363-.108.041.041,0,0,1,.013,0c.085.013.085.013.106-.07a.04.04,0,0,1,.017-.006.163.163,0,0,0,.173-.082c.014-.025.042-.039.062-.059a.486.486,0,0,1,.14-.037.34.34,0,0,1,.065-.005,1.169,1.169,0,0,0,.288-.046c.054-.013.107-.025.16-.04a1.226,1.226,0,0,0,.136-.052.711.711,0,0,0,.1-.041c.033-.009.063-.033.1-.026.008,0,0,0,.006,0a.106.106,0,0,0,.025.016c-.007-.007-.017-.012-.013-.024a.08.08,0,0,1,.045-.034.087.087,0,0,1,.038,0c.045.028.081-.02.123-.014,0-.009-.016-.009-.018-.019s.007-.016.018-.016c.036-.015.057,0,.069.034a.115.115,0,0,0,.04.123c-.022.035-.063.042-.094.062s-.077.028-.115.042a.2.2,0,0,0-.105.082.323.323,0,0,1-.03.034.192.192,0,0,1-.044.033.077.077,0,0,1-.069,0c-.023-.009-.038,0-.044.021a.1.1,0,0,0,0,.033c-.006.133-.006.133.125.153a.245.245,0,0,0,.153-.022.27.27,0,0,1,.089-.018l.125.045c0-.027.017-.049.048-.019.013.031-.008.063,0,.094a.081.081,0,0,1,0,.028.356.356,0,0,1-.028.059.167.167,0,0,1-.031.034.442.442,0,0,1-.072.042.114.114,0,0,1-.054.015.032.032,0,0,1-.029-.019l-.02.018a.04.04,0,0,1-.025.025c-.014,0-.029.007-.043.013l-.016.006a.094.094,0,0,0-.058.064.394.394,0,0,0,.077.307.588.588,0,0,0,.108.108c.017.011.035.02.052.032a.281.281,0,0,0,.045.025l.033.017a.455.455,0,0,0,.2.057h.2a.7.7,0,0,0,.213-.013.236.236,0,0,0,.09-.066,1.092,1.092,0,0,0,.092-.1.087.087,0,0,1,.029-.026c.054-.024.108-.047.16,0l.038.008a.251.251,0,0,1,.127.053.956.956,0,0,0,.245.133l.019,0a.317.317,0,0,0,.088.007.073.073,0,0,1,.038.012.029.029,0,0,1,.009.027.119.119,0,0,0-.015.13.054.054,0,0,1,0,.018.192.192,0,0,0-.035.161c.014.068.045.136,0,.2a.9.9,0,0,1-.1.206.268.268,0,0,1-.1.071.235.235,0,0,0-.075.033.213.213,0,0,0-.049.228c.01.033.018.065-.012.093l-.02.02c-.047.046-.094.094-.145.136-.037.022-.053.064-.086.091l-.017.008c-.024.005-.038,0-.032-.028a.3.3,0,0,0-.052.141,2.576,2.576,0,0,0-.227.429c-.008.055-.018.11-.023.166s-.02.133-.029.2a.048.048,0,0,1-.01.017c-.075-.021-.094.026-.107.086-.007.034-.022.067-.029.1a.234.234,0,0,1-.031.082.07.07,0,0,1-.05.03l-.067.089a.05.05,0,0,1-.036.031c-.021,0-.034-.021-.055-.018,0,.016.023.028.008.046a.031.031,0,0,1-.015.01c-.023,0-.039,0-.03.028-.023.045-.075.055-.107.086a.557.557,0,0,1-.18.12.373.373,0,0,0-.115.065.9.9,0,0,0-.109.091.563.563,0,0,0-.14.143.167.167,0,0,1-.033.045.214.214,0,0,1-.1.053.054.054,0,0,1-.035-.013.753.753,0,0,1-.086-.12.553.553,0,0,0-.065-.1.247.247,0,0,0-.086-.06.169.169,0,0,1-.1-.12.619.619,0,0,1-.019-.087c0-.022,0-.049-.024-.059-.064-.03-.116-.081-.181-.108a.161.161,0,0,0-.121.018.461.461,0,0,1-.164.016h-.041a1.416,1.416,0,0,0-.186-.014,1.1,1.1,0,0,1-.211-.029.349.349,0,0,1-.1-.054c-.007-.058.023-.112.021-.17l-.048-.089c-.022.008-.036-.012-.048-.027a.733.733,0,0,1-.055-.066.18.18,0,0,0-.114-.082.58.58,0,0,1-.034-.124.082.082,0,0,0-.042-.063c-.019-.012-.037-.025-.034-.051s0-.059.011-.087.019-.047.027-.07.018-.038.027-.057a.3.3,0,0,0,.014-.033.212.212,0,0,0-.065-.172c-.017-.02-.037-.037-.056-.055a.78.78,0,0,0-.325-.2.2.2,0,0,0-.154.017,1.55,1.55,0,0,0-.154.077l-.022.016a.508.508,0,0,1-.069.04.942.942,0,0,0-.1.052.289.289,0,0,0-.043.041.226.226,0,0,0-.048.08c-.01.028-.019.057-.028.085s-.008.03-.012.045a.066.066,0,0,1-.034.044.465.465,0,0,0-.057.007c-.017.006.007-.052-.016-.009a.051.051,0,0,1-.039.023c-.053.01-.077.033-.042.085a.02.02,0,0,1,0,.029.145.145,0,0,1-.123.012.106.106,0,0,1-.041-.081.207.207,0,0,0-.009-.12.129.129,0,0,1,.006-.084.115.115,0,0,0-.014-.1c0-.006,0,.01-.01.012a.021.021,0,0,1-.016.006.29.29,0,0,0-.048-.035.04.04,0,0,1-.016-.021c0-.018-.006-.035-.03-.03s-.04.017-.057.031a.044.044,0,0,1-.017.006.342.342,0,0,0-.089-.032.059.059,0,0,0-.055.007.082.082,0,0,1-.026,0,.149.149,0,0,0-.141.035.041.041,0,0,1-.027-.008.062.062,0,0,1-.012-.014c-.01-.023-.018-.046-.029-.069-.012-.059-.066-.082-.1-.121a.468.468,0,0,1,0-.4.056.056,0,0,1,.031-.025.173.173,0,0,1,.051-.006.082.082,0,0,0,.094-.086.068.068,0,0,1,.047-.03c.055.013.092-.028.137-.046.028-.012,0-.03.007-.044.021-.036.06-.039.1-.048a.116.116,0,0,1,.039,0c.059.028.081-.021.111-.054a.042.042,0,0,1,.018-.006c.072-.007.072-.007.056-.075a.055.055,0,0,1,.033-.044.065.065,0,0,1,.033,0c.041.013.059,0,.054-.045a.229.229,0,0,1,0-.053.17.17,0,0,1,.086-.1.239.239,0,0,1,.11-.045.476.476,0,0,0,.237-.1c.023,0,.039.034.066.015l.007.005c-.005-.022-.041-.026-.034-.055a.062.062,0,0,1,.044-.046c.037.016.054-.021.081-.032.047-.019-.012-.048.006-.069a.127.127,0,0,1,.046-.073c.033-.022.052,0,.075.021Z" transform="translate(-293.199 -150.292)"/><path class="a" d="M975.37,317.489l-.006.024a.136.136,0,0,1-.088.058c-.041.03-.081.013-.121,0-.016-.022-.038-.019-.061-.019a.04.04,0,0,1-.016-.007c-.02-.049-.059-.054-.1-.046a.018.018,0,0,1-.01-.014c.006-.021.034-.026.036-.053a.5.5,0,0,1-.189-.01.346.346,0,0,0-.194-.028.128.128,0,0,1-.045-.018c-.009.015.006.029,0,.043-.029.046-.081.051-.125.07a.231.231,0,0,1-.144-.091.35.35,0,0,1,.029-.143c.03-.055.03-.105-.035-.137a.066.066,0,0,1,.015-.073c.034-.04.091-.006.127-.04a.144.144,0,0,0,.036-.038.277.277,0,0,0,.018-.03c.012-.021.023-.043.048-.052a.015.015,0,0,1,.015.008c0,.008,0,.018.005.024s0,.008,0,0a.04.04,0,0,0-.01-.034c.035-.032.047-.006.049.024a.071.071,0,0,0,.028.061c-.019-.015-.033-.033-.023-.058s.022-.008.034,0a.789.789,0,0,1,.154.217.039.039,0,0,1,0,.013c0,.018-.014.039.019.039,0,.029.036.07-.024.081-.006-.006,0,0-.005,0s-.006-.011-.012-.013.008.01.013.014a.671.671,0,0,0,.124.008.226.226,0,0,0,.149.04.822.822,0,0,1,.177.005.059.059,0,0,1,.018.013.183.183,0,0,0,.042.017c.062.008.092.039.08.1A.053.053,0,0,1,975.37,317.489Z" transform="translate(-268.327 -191.815)"/><path class="a" d="M1050.617,262.845c.079-.01-.028-.056.015-.073-.037-.013-.01-.033-.006-.051s.016-.044.01-.048a.052.052,0,0,0-.061,0c0-.013,0-.027,0-.04l.016-.052.013-.014c.026-.018.04,0,.057.016s.03.045.053.022-.01-.038-.019-.056-.02-.029-.011-.049l.093-.029a.818.818,0,0,1,.224-.065.189.189,0,0,1,.084.015.193.193,0,0,0,.167.023c.052,0,.1-.012.154-.016a2.45,2.45,0,0,1,.484-.023.391.391,0,0,0,.14-.037.389.389,0,0,1,.175.1.408.408,0,0,1,.139.139.072.072,0,0,0,.081.038,7.8,7.8,0,0,1,.644.513c.011.035-.015.039-.039.046.033.041.078.032.121.028a.124.124,0,0,1,.083.035.318.318,0,0,1,.032.152.069.069,0,0,1-.014.022c-.006.007-.02-.009-.013,0,.045.06-.007.122.008.182a.493.493,0,0,0,.012.083c0,.093,0,.186,0,.279,0,.019,0,.038,0,.057,0,.051-.013.093-.069.108s-.116.016-.174.025a.143.143,0,0,1-.123-.024.075.075,0,0,1-.019-.023c-.015-.069-.083-.053-.126-.078-.014-.008-.035,0-.051-.013a.019.019,0,0,1-.009-.015.14.14,0,0,1,.053-.041c-.048.053-.11-.023-.172-.007-.059-.01-.1-.057-.149-.082s-.092-.062-.14-.091a.81.81,0,0,0-.121-.085c-.154-.106-.309-.211-.466-.312a.391.391,0,0,0-.11-.048.355.355,0,0,0-.182-.031.852.852,0,0,0-.15.006c-.023.006-.047,0-.07.013a.4.4,0,0,1-.127.028.517.517,0,0,0-.065.013c-.022.005-.045.007-.067.01a.391.391,0,0,1-.125-.034c-.034-.019-.083-.011-.1-.059l.013-.059a.389.389,0,0,1,.022-.22c.052-.072.052-.073-.047-.106C1050.66,262.893,1050.61,262.9,1050.617,262.845Z" transform="translate(-331.481 -146.694)"/><path class="a" d="M969.119,303.191l-.024-.008c-.033-.009-.04-.038-.048-.065a.032.032,0,0,1,.006-.025s.015,0,.013,0a.715.715,0,0,1-.042-.148h0c-.005-.017.029.022.014-.01a.027.027,0,0,1,0-.029h0c.02,0,.041-.027.059,0-.005-.033-.025-.068-.034-.106s.014-.068.017-.1-.057-.065-.013-.106a.031.031,0,0,1,.015-.01.685.685,0,0,1,.141-.006.056.056,0,0,0,.067-.028.1.1,0,0,1,.046-.033l.019,0a.566.566,0,0,1,.059,0c.038,0,.055-.01.045-.05s-.008-.066-.018-.1a.6.6,0,0,0-.014-.094.972.972,0,0,1,0-.134.244.244,0,0,1,0-.053.138.138,0,0,1,.069-.086.948.948,0,0,0,.21-.171.051.051,0,0,1,.023-.012c.027.007.043,0,.025-.028a.035.035,0,0,1,.03-.031.115.115,0,0,1,.064.01.051.051,0,0,0,.06-.013.094.094,0,0,1,.129-.025.086.086,0,0,0,.033,0c.021,0,.041.016.064.012s.029-.01.015-.025,0-.047.012-.068a.53.53,0,0,1,.229-.108c.015,0,.032-.015.045-.011a.232.232,0,0,0,.215-.07.139.139,0,0,1,.145.019.3.3,0,0,0,.177.065.2.2,0,0,1,.164.1.074.074,0,0,1,0,.041.3.3,0,0,0,.015.158.252.252,0,0,1,.011.078.674.674,0,0,0,0,.182.043.043,0,0,1-.033.01.023.023,0,0,0-.028.021.138.138,0,0,1-.029.044.235.235,0,0,0-.051.1.191.191,0,0,1-.082.16.12.12,0,0,1-.044.017c-.024,0-.047,0-.052.03a.051.051,0,0,1-.028.022.105.105,0,0,0-.073.093c-.015.031-.022.069-.063.08-.035-.008-.049.015-.056.042a.081.081,0,0,1-.074.065c-.017,0-.044.023-.049-.007s.011-.053.049-.046c-.038-.006-.057.018-.05.047.013.058-.011.078-.055.078.017,0,.045-.017.032.03-.032.039-.08.06-.112.1-.017.013-.04.023-.054.006-.044-.052-.078-.022-.114.008-.1,0-.133.048-.1.154.012.035-.01.063-.019.093l-.013.036a.5.5,0,0,0-.027.1c0,.009,0,.017-.006.025-.023.1-.036.1-.126.047a.038.038,0,0,1-.01-.015c.022-.04-.016-.022-.028-.028a.425.425,0,0,1-.1-.079c-.037-.03-.071-.051-.12-.026a.092.092,0,0,1-.059,0,.092.092,0,0,0-.042,0,.062.062,0,0,1-.026,0,.034.034,0,0,1-.018-.019.093.093,0,0,0-.021-.062.055.055,0,0,1,0-.017c-.011-.048-.034-.035-.059-.012l-.017.007a.283.283,0,0,0-.092.025c-.016.014-.019.035-.03.051-.045.047-.068.006-.095-.024,0-.023-.024-.022-.039-.028a.036.036,0,0,1-.014-.012C969.152,303.187,969.144,303.18,969.119,303.191Z" transform="translate(-263.965 -179.039)"/><path class="a" d="M715.834,96.262l-.068.021-.045.027-.343.253-.424-.1-.46.028-.461-.134-.115.037-.062.188-.075.28-.281.077-.164.035-.147.084-.284.135-.3-.13-.126-.071-.138.015-.455-.023-.36-.267-.186-.125-.216.061-.135.046-.134-.021-.5-.071-.421.272-.229.111-.243-.007-.111-.148.052-.2.018-.063-.031-.046-.16-.061-.034-.153.138-.241.214-.181.113-.05.1-.071.053-.222-.2-.117-.188-.072-.048-.186-.078-.183-.165.015-.839.223-.862.066-.185.071-.148.127-.295.342-.4.217-.3-.028,0-.293.047-.264-.025-.262-.028-.114.024-.1.316-.393.351-.36.072-.029.075-.026.141-.079.043-.134-.109-.069-.143.029-.239.026-.142-.163.075-.216.218-.088.255-.119.157-.235-.2-.02-.189.049-.22-.025-.154-.143v-.242l.154-.165.173-.152.03-.216.041-.131.111-.088.094-.143-.066-.154-.123-.046-.092.1-.025.026-.022.011-.333.03c-.558.762-.672.148-.6-.42l.334-.407.121-.065-.011-.129-.17-.128-.205.052-.122.128-.17-.04-.083-.179.111-.163.047-.093-.069-.083-.085-.11-.039-.135.052-.123-.052-.106-.18-.014-.171.092-.086.1-.11.021-.065-.13.027-.157.025-.114.055-.086.124-.192-.1-.2-.008-.108.061-.08.347-.211.327-.2-.079-.043-.076.015-.109.005-.069-.08,0-.108.071-.083.069-.05.065-.018.526-.031.492-.223-.062-.231.227-.1.279-.114.142-.285.118.281.21.178.295.025.3-.035.406-.056.374-.18.242-.088.12.324.231-.325.3.12.244-.076.2-.166-.032-.048-.051-.027-.094.016-.089.007-.158-.03-.119-.088.056-.107.1-.1-.092-.037-.1.027-.062.012-.05-.029-.022-.132.064-.1.051-.2.142-.11.155-.016.12-.081.3-.189.323-.153.321-.223.314-.257.3-.122.175.266.05.075.084-.017.162-.1.162-.1.143-.143.152-.029.189.149.041.261.01.1.043.13.14-.2.218-.1.22.08.164.156.1.074.112.062.259.187.149.266.174.325.368.061.852-.027.847.043.745.115.745.044.955-.027.953.04.211-.023.189-.113.38-.224.334.295c.621.549,1.922.5,2.772.83a8.75,8.75,0,0,0,5.369.273.37.37,0,0,1,.456.319c0,.007,0,.013,0,.019a1.343,1.343,0,0,1,1.251-.467c.217.038.389.407.169.4a7.649,7.649,0,0,1,2,.623c.232-.649,1.161-.679,1.8-.411a3.945,3.945,0,0,0,3.219.384l.091-.109.062-.119.209-.128.2.125.145.171.121.173.229.26.334.079.185,0,.145-.1.225-.154.279.027.157.195-.012.239-.039.356-.154.328-.055.192.12.16.161.009.075-.145.059-.074.059-.074.07-.084.1-.005.089.085-.006.124.014.288.265.111.578.139.556.212.263.028.256-.073.366-.024.19.31.094.195.148.161.587.3.637.075.315-.049.336.006.4.181.271.311.3.272.38-.115.3-.132.309-.117.166-.011.129.07.249.158.214-.2.064-.04.073.033.288.141.317-.045.219-.017h.22l.174-.041v-.18l-.1-.331.111-.281.351-.086.373.1.483.184.511.063.2.025.146.1.33.226.385-.056.389.044.245.282.144.365.022.409.05.311.229.254.254.021.225-.14.571-.158.563.15.234.014.185-.109.147-.077.134.019-.008.133-.134.08-.047.207.127.166.2.132.228-.1.145-.166.19-.142.665-.076.566.3.486.165.49,0,.082-.033.057-.072.351-.442.512-.228.478-.169.506.191.165.036.2-.008.051.387.4.18.215.109.012.24-.17.241-.286,0-.2-.087-.192.068-.063.233.111.225.182.268.225.242.2.633-.229.617-.432.463-.445.443-.171.128-.188.115-.269.147-.208.237-.117.143-.175.081-.86.371-.776.523-.515.424-.339.58-.271.314-.405.144-1.132.313-1.118.36-.593.177-.54.269-.438.235-.464.137-.511.272-.392.427-.257.355-.268.349-.088.222.215.123.15.041.086.123.054.075.074.054.135-.012.084.069-.065.176-.164.1-.429.168-.451.114-.178.052-.137.168-.367.764-.424.725-.348.6-.465.516-.169.17-.082.218-.159.374-.307.257-.081.055-.055.07-.472.769-.465.772-.007.015-.005.015-.3.769-.389.731-.063.293.045.289.189.529.214.519.107.41.076.413.463.788.77.486.5.3.389.43.005.114-.09.094-.309.221-.175.347-.076.07-.136-.022-.335.007-.12.311-.083.184-.18.083-.46.158-.463.149-.261.137-.139.228-.139.314-.287.172-.265.254.023.363-.01.2-.133.1-.424.363-.074.54-.05.3-.161.261-.127.168-.052.221-.017.3-.235.239-.148.209-.073.311.131.222.251.167.178.061.093.151-.124.151-.2.033-.332.076-.324.119-.161.028-.157-.087-.1-.075-.122-.029-1.071.109-1,.4-.044.024-.032.029-.541.511-.578.417-.494.469-.21.659-.023.178-.118.16-.139.192-.061.224-.089.415-.328.27-.045.039-.024.06-.225.456-.357.362-.308.215-.326-.22-.187-.23-.237-.18-.252-.083-.252.064-.119.035-.117-.025h-.5l-.332.39-.335.392-.4.078-.31-.1-.286-.145-.215-.1-.225-.022-.52,0-.52-.005-.53.019-.511.15-.535.051-.51-.185-.108-.067-.116-.025-.594.008-.576-.052-.714,0-.706.1-.51.055-.514-.056-.2.031-.164.142-.495.526-.556.463-.374.127-.407-.086-.222-.073-.2.019-.8.292-.8.3-.043.026-.03.033-.39.552-.4.544-.1.159-.2.011-.227.033-.058.221.052.33-.155.264-.43.1-.42-.118-.409-.2-.4-.215-.156-.1-.135-.13-.3-.291-.4-.113-.131-.025-.085-.081-.411-.692-.427-.68-.1-.231-.092-.234-.053-.274.26-.123.121-.056-.064-.125-.233-.176-.289-.08-.343-.124-.16-.486.1-.249.254-.1.087-.033.084-.03-.578-.792-.661-.725-.4-.307-.43-.257-.373-.2-.366-.215-.4-.206-.454-.07-.569-.007-.566-.068-.166.11-.156-.033-.15-.374-.023-.41.026-.663-.239-.619-.026-.107.049-.094.209-.343.127-.383.207-.359.329-.253.413-.5.206-.607.115-.188.192.015.17.027.13-.13.152-.081.174.074.295.04.169-.226.04-.112.094-.073.107-.1v-.158l-.112-.333-.343.073-.265.028-.175-.19-.341-.773-.444-.716-.034-.309.127-.277.153-.325.027-.375.077-.266.236-.206.4-.328.438-.273.067-.053,0-.068-.029-.391.259-.286.149-.264-.051-.3-.177-.179-.238-.017-.242.009-.1-.218-.054-.129-.117-.077-.176-.155-.064-.22-.064-.362-.22-.3-.076-.171.046-.185.027-.244-.19-.139-.146-.1,0-.185-.015-.17-.116-.127-.2-.265-.153-.288-.033-.071.02-.072.075-.045.092.019.493.113.512-.051.333,0,.344.062.492-.036.206-.443.083-.231.125-.215.329-.692-.049-.771-.089-.173-.159-.125-.156-.216-.039-.275.051-.161.168-.1.1-.048.1-.028.3-.117.224-.244.125-.321-.039-.324-.016-.244.131-.216.122-.176-.068-.205-.062-.12.01-.115.087-.433-.078-.433-.029-.291.107-.283.018-.091-.047-.082-.189-.443-.184-.447-.027-.123.14-.039.448-.042.189-.428.127-.141.139-.1.447-.4.563-.192.152-.078.135-.109.252-.276.3-.23.094-.093.056-.138.151-.342.247-.279.119-.223-.1-.245-.463-.379-.6-.016-.353-.163.006-.471.091-.527-.039-.514-.044-.1-.128,0-.138.027-.14.01-.379-.047Z" transform="translate(-45.242)"/></g></svg>