<svg height='300px' width='300px'  fill="#242424" xmlns="http://www.w3.org/2000/svg" xmlns:xlink="http://www.w3.org/1999/xlink" version="1.1" x="0px" y="0px" viewBox="0 0 99.137 87" enable-background="new 0 0 99.137 87" xml:space="preserve"><polygon points="67.393,21.126 64.256,22.115 60.381,21.536 55.868,19.906 53.183,18.077 51.677,17 46.333,17 41.054,17 33.926,17   27.425,15 20.991,15 16.694,14 14.127,14 13,15.378 13,16.64 10.066,16.666 7,18.041 7,20.6 8.539,22.1 9.718,23.426 8,26.86   8,28.519 12.11,27.182 13.65,26.708 13.26,28 15.711,28 21.519,28 23.347,30.035 24.957,31.559 23.669,33.771 20.343,36.056   20.987,39.292 20.343,41.875 19.591,43.596 19.807,46.284 16.48,47.248 17.982,51.433 19.377,52.936 17.016,56.075 17.982,59   18.879,59 17.875,61.343 15.729,63.524 16.051,67.19 19.377,67.844 22.06,69.994 22.704,72.25 24.206,74.719 27.64,77.187   29.786,75.579 32.254,73.325 34.937,72.662 36.653,72 43.165,72 46.419,71.834 48.565,70.433 51.248,70.914 52.214,68.31   54.252,65.398 57.9,64.64 59.833,64.1 59.296,62.596 59.833,58.946 61.979,56.585 64.769,55.189 64.983,54.009 62.622,52.292   61.442,49.18 62.086,46.286 66.164,40.488 68.524,38.342 67.988,36.947 70.241,35.337 75.178,33.191 78.874,30.294 83,27.933   83,25.879 83.097,24.606 81.874,23.534 78.633,24.5 74.276,25.787 72.634,24.5 70.58,22.246 69.284,21.387 "></polygon><polygon points="82.54,44.026 78.161,46.466 79.148,48 81.178,48 83.576,49.045 85,46.521 85,45.15 83.562,44.458 "></polygon><polygon points="87.778,44 89.89,44 91.274,43.232 90.523,41.752 87.089,42.147 "></polygon><polygon points="72.902,51.228 71.411,52.721 72.173,54 73.523,54 75.178,52.614 74.534,50.891 "></polygon><polygon points="72.388,55.396 73.294,56.576 74.749,55.985 "></polygon></svg>